<?xml version="1.0" encoding="utf-8"?>
<!-- Generator: Adobe Illustrator 28.0.0, SVG Export Plug-In . SVG Version: 6.00 Build 0)  -->
<svg version="1.1" id="Layer_1" xmlns="http://www.w3.org/2000/svg" xmlns:xlink="http://www.w3.org/1999/xlink" x="0px" y="0px"
	 viewBox="0 0 100 100" style="enable-background:new 0 0 100 100;" xml:space="preserve">
<style type="text/css">
	.st0{fill-rule:evenodd;clip-rule:evenodd;fill:#4C4015;}
</style>
<path class="st0" d="M59.9,65.6c-0.8,0-2.3,0-4.1,0c0-0.2,0.1-0.4,0.1-0.7v-3.3c1.7,0,3.1,0,4,0c4.4,0,8-3.6,8-8c0-4.4-3.6-8-8-8
	c-1.2,0-2.4,0.3-3.4,0.8l-1.6-1.6c-1.9-4.2-6-7.2-11-7.2c-6.6,0-12,5.4-12,12c0,6.6,5.4,12,12,12V65c0,0.2,0,0.4,0.1,0.7
	c0,0,0,0-0.1,0c-8.8,0-16-7.2-16-16c0-8.8,7.2-16,16-16c6,0,11.2,3.3,14,8.2c0.7-0.1,1.3-0.2,2-0.2c6.6,0,12,5.4,12,12
	C71.9,60.3,66.6,65.6,59.9,65.6z M42.9,55.4c-0.8-0.8-0.8-2,0-2.8l5.7-5.7c0.8-0.8,2-0.8,2.8,0l5.7,5.7c0.8,0.8,0.8,2,0,2.8
	c-0.8,0.8-2,0.8-2.8,0l-2.2-2.2V65c0,1.1-0.9,2-2,2c-1.1,0-2-0.9-2-2V53.2l-2.2,2.2C44.9,56.2,43.6,56.2,42.9,55.4z"/>
</svg>
